<?xml version="1.0" encoding="UTF-8"?>
<svg version="1.1" viewBox="0 0 2048 1591" width="130" height="101" xmlns="http://www.w3.org/2000/svg">
<path transform="translate(0)" d="m0 0h2048v1591h-2048z" fill="#111"/>
<path transform="translate(979,244)" d="m0 0 13 1 4 2 2 5h5l1-5 1-1 13 1 18 3 33 9 30 8 23 7 23 6 25 8 24 6 77 18 30 8 41 10 67 17 30 8 42 12 45 7h11l18 3 10 2 6 2 8 3 25 7 10 4 19 5 42 9 26 6 30 5 23 3 4 4v5l-10 11-9 7-8 5-16 6-23 13-20 9-29 8-16 4-15 3-26 8-19 6-33 11-14 4-20 8-16 8-11 6-12 6-24 7-7 3-2 2h-3v2h-3v-3l2-1-11 2-20 7-32 12-40 16-7 4 5 10 6-1 6-3 23-3 26-6 41-12 16-5 36-11 36-12 35-12 36-13 55-18 32-11 36-14 9-7 5-9 10-13 6-11 6-4 10 1 6 3 2 3v27l1 10v10l-4 2-11 2-16 4-14 6-3 3-12 5h-2v3l-26 10-16 6-20 8-30 11-24 8-17 5-19 5-47 12-18 5 4 6 7 17 5 12 3 7 8 11 5 6v4l-5-1-11-9-5-5-1 8v14l-3 69-1 50-5 123-1 42-3 12-4 6-10 9-8 4-3-1 8-7 6-9 5-18v-19l-3-7-11 6-4 6-4 17-8 16-8 12-9 11-14 8-29 13-33 11v13l2 44 2 25 4 7 2 5 11 9 9 9 7 11 6 15 3 12 1 13v33l6 7 6 8 9 10 7 8 9 11 8 10 10 13 9 10 11 14 8 8v2l4 2 9 9 8 7 10 11 8 16v10l-6 12-8 11-12 13-12 11-11 8-12 6-18 6-15 2h-49l-26-1-53-5-8-4-7-8-5-12-6-24-5-26-1-14v-28l2-19 4-20 6-18 10-19 11-15 5-9-1-8-13-39v-16l4-10 6-10 11-12 11-7 9-5h2l-3-19-5-42-2-18-7 1-41 12-58 16-52 10-29 4-34 3-17 1-31 1h-44l-32-2-36-4-41-6-60-11-31-7-45-9-32-9-29-9-30-12-20-10-12-8-14-10-12-11-5-5-7-8-9-15-7-19-5-22-3-21-4-46-3-40-1-23v-78l3-71 1-17v-14l-3-5-36-12-33-10-77-27-36-13-20-8-43-18-23-12-9-7-6-7-2-5v-9l6-8v-4l-2 1h-10l-3-2v-7l6-14 8-10 3-1 2-5 5-6 10-7 11-6 2-1 21-1 31-7 22-6 33-7 26-7 46-12 64-16 38-10 70-17 49-14 44-11 29-7 65-15 40-9 34-7 29-4z" fill="#C1C1C1"/>
<path transform="translate(1e3 267)" d="m0 0 20 4 21 4 37 8 42 11 35 10 39 12 44 13 41 11 18 4 15 2 25 5 21 6 22 8 19 7 17 6 18 6 10 2 12 5 19 3 19 5 30 7 41 10 24 5 29 8 13 5 17 9 7 5 18 7 5 3 7 1-1 2-16 6-21 5-22 3-25-10-23-12-21-9-19-6-27-10-26-10-15-5 8 4 19 7 8 5 26 10 15 7 26 9 27 13 8 5 10 4v2l-10 5-11 3-27 6-5 2-8 2-20 9-25 7-14 5-23 11-9 2 4-5 5-2 1-2-3-3-5 1h-15l-5-4-11-2 8 5v3l3 1-3 3v6l-9 4-20-1-2-1-13 1-2 1v3l14 4v3l-17 7-20 9-21 7-21 8-24 7-15 5h-9l-1-3-17-9-16-8-16-9-44-26-18-11-14-9-27-18-16-11-15-10-13-8-16-8-3-2 1-4 5-6 11-8 7-11 4-9v-9l-1-1-1-11-3-6-8-4-25-9-13-3-14-2h-25l-17 3-15 4-11 6-13 8-10 12-5 9-2 7v7l5 8 13 9 12 7 14 5 12 3 19 3 15 1 18 5 29 12 22 12 23 13 20 12 17 11 20 12 19 12 21 13 16 10 14 9 12 7 1 4-6 4-19 8-24 9-28 11-38 12-25 6-17 3-10 4h-7l-4 1-17-12-4-4-9-4-10-9-10-6-12-6-6-5-9-5-9-6-7-3 4 5 15 10 13 11 15 8 13 9 5 3 8 6 5 4 6 8 8 3-4 3-9 3-13 1-10-5-9-6-20-7-23-6-7-2-10-1-12-3-20-4-28-8-27-8-47-13-26-7-24-7-54-18-35-12-25-10-16-6-27-11-25-10-9-4-11-4-28-8-12-3-13-5-16-5-10-4-37-13-38-10-32-9-19-4-30-10-9-4-1-3 4-4 4-1v-2l-2-1 22-5 27-9 31-9 12-3h8l8 4 12 11 14 14 8 7 12 11 11 9 12 9 10 8 8 5 7 4 2 1-4-5-9-7-10-9-13-11-8-7-16-13-8-7-27-27-5-2 4-2 4 2 2-4 13-5 20-5 14-3 41-12 15-5 21-6 34-11 19-6 15-6 31-8 24-6 13-4 32-7 26-5 53-13 41-11 40-7 38-5 20-2 21-1 7-1z" fill="#0D0D0D"/>
<path transform="translate(590,603)" d="m0 0 17 4 48 13 29 8 39 12 35 12 36 12 13 5 9 5 2 9-1 3h-3l1 7 7 24 12 25 8 16 6 13 12 24 10 18 8 14 7 10 8 16 15 24 10 17 3 5 13 11 2 1v2l4 2 11 7 20 11 11 7 15 10 13 9 17 12 25 17 30 20 19 12 14 8 16 8 12 5 3 1-4-6 2-1-6-2-11-6-12-6-12-5-13-7-10-7-14-10-12-11-14-10-20-12-10-7-10-6-19-14-11-8-3-5v-3h2v2h2l-7-20-7-12-6-11-11-18-7-10-12-23-8-14-9-23v-4l9 3 8 4 5-1 5 3 9 14 7 8 11 21 6 9 9 19 10 19 9 13 9 11 12 12 10 8 13 7 7 4-3-3-8-6-17-16-10-11-3-4v-2h-2l-10-19-14-22-5-8-5-10-6-10-12-21-7-10-4-10v-4l-3 1v6l-1 1-10-1-21-10-9-10-8-14-3-10-16-32-13-19-8-11-1-3 12 3 17 6 25 12 10 9 7 9 3 4 1-7-5-9-4-5 10 2 5 5 6 7 10 13 12 13 5 5 3 9h-4l2 12 1 5h-3v3h3l-1 2h2l-1 2-6-3-7-6-5-5-7-9-14-19-3-7-3-1-2-4h-2l-1 9-3-1v-2l-10-3h-4l2 1-1 2-10-4h-1l1 5 5 2 23 11 7 6 7 8 5 8 3 7 4-1 2-3 4 1 11 7 3 2v2l5 2 11 18 7 9 6 10 7 8 7 11 4 8 8 11 5 8 1 3 3 1 7 8 13 14v2h2l6 8 4 6 8 6-1-3-8-7-7-9-12-16-7-10-6-8-11-16-9-15-8-16-5-8-3-6-6-9-6-18-8-14v-8l9 2 6 4 5 5 10 8 4 5 4 15 4 6 7 6 9 11 12 24 16 26 7 10 6 12 5 6 9 15 9 13 9 11 13 12 7 9 1-11-13-19-14-21-13-17-12-17-12-19-13-24-9-16-6-9-4-10-5-5v-2l-4-2-8-7-4-8v-6l-3-3-4-1-2-3h-8l-14-6-7-10-9-13-9-8-12-8-5-2 4-1 10 2 5 3 6 1 8 1 16 6 9 7 5 5 6 5 7-2 1-4-2-3 10 1v-2h18l3 6-1 10h7l5-7 9-4h6l21 21 8 7 7 8 7 9 6 7 5 9 5 6 1 2h5l2 4 3 1 4-3v-3l-3-1v-2h-3l-7-11-5-8-7-14-9-10-8-7-5-6-9-1-9-6-5-4v-3l13-6 9-3 9-6 6-1v-2l12-6 4 1-6 4-4 2-1 2 9-4 4 1 3 17 1 12 9 27 4 8 6 21 2 4v5h-3l1 9-2 12 4 9 3-1 2-8 2-5 5 1 4 8 1 4 2 2 4 12 5 10 8 10 5 8v2h2l7 10 10 10 9 16 4 5 3 8 2 9 2-22-8-15-16-20-7-8-8-10-9-15-7-13-8-9-4-5 1-4h2l-8-10-1-4 1-5h3l-1-4-1-5-1-4-4-9-1-4-8-20-10-32-1-8 2-5h6l5 5 11 10 9 7 19 13 11 6 17 7 15 6 11 7 6 7 8 10 5 4v3l-6 2 11 6 7 7 9 11 8 10 13 18 5 4 10 14 3 5 2 28 3 10-4-1-9-7-17-16-9-11-8-10-11-15-10-9-8-6-1-2 5 1 5 3-7-12-4-9-3-16v-3l2-1-1-3-4-1-12-7-19-8-13-5-18-10-11-10-4-6v-2h-2l-1 8-2 1 1 5 1 3 3 1 4 4 11 8 6 6 14 6 23 10 5 5 2 4 3 1 7 12 3 11v2h-7v2l4 1 4 5v3l4 2 11 12 7 9 13 17 10 13 9 10 4 5 14 10 4 5 2 15v13l-1-2-5-2-9-4-13-7-5-4-4-4-9-7-12-13-7-9-6-12-4-4v-2h-2l-10-20-5-12-5-9v-2l4 1v-4l-3-1-13-17-9-11-3-5-5-4-11-1-8-1-4 2-2 3 1 6 10 6 10 3 9 6 9 11 9 17 8 16 5 12 6 9 5 10 3 9 8 10 13 12 14 9 21 13 20 12 1 2 2 32v7l-2 2-3-9h-7l-10-5-10-7-22-13-14-9-11-7-13-7-9-6-6-3-20-11-14-10-11-10-10-13-3-5-6-19-4-12-2-4-1-8-4-1-9-5-5-5-3-7-4-10-8-6-14-8-7-8-10-14-8-16-6-9-5-4-2-5h-2l5 15 2 13 7 17 7 10 5 5 7 3 5 2h3l4 5 14 14 7 8 10 8 6 8 3 9 2 12 1 15 10 13 9 10 10 10 11 9 17 11 15 10 22 12 26 13 22 9 16 9 8 5 10 4v7l1 5-7 3-60 14-63 11-36 4-18 4-34 3-29 1h-50l-54-2-83-5-26-1-32-7-26-7-36-12-25-9-23-10-23-13-10-7-7-8-5-4-10-4-8-5-8-4-4-8h-2l3 6-3 1-6-4-5-5-1-7-9-7-6-8-4-10-3-16-1-13v-62l1-41v-142l-5-21-3-6v-2l-4-2z" fill="#0D0D0D"/>
<path transform="translate(310,440)" d="m0 0h22l6 7 15 6 43 14 54 18 20 7 37 14 15 6 57 21 43 15 78 29 44 15 41 13 31 9 50 15 35 10 35 9 43 13 30 6 12 3 18 2 7 2 10 2 14 1 15-6 4-4 11-3 24-4 14-4 25-7 19-5 28-9 24-7 25-9 30-7h5v16l-24 8-28 7-52 17-26 6-23 5-21 5 2-6 1-2-8 5-5 4-7 4-11 1-27 12-18 4-1-1-7-1-1-5-5-1-3-3-3-1-2 5-1 1-1 7 3 1v5h-8l-21-6-10-4-19-7-18-4-23-8-16-5-30-10-29-9-34-11-22-6-27-9-23-7-25-9-23-7-38-13-69-23-35-10-29-9-30-10-14-5-13-4-25-7-27-9-27-8-15-6-16-5-20-8-24-12-14-14-2-4v-9l5-6z" fill="#0D0D0D"/>
<path transform="translate(1316,1241)" d="m0 0h19l-1 2h-7l4 9 13-1 17-5h13l10 5 6 5 10 14 8 13 6 18 6 21 13 36 13 34 4 9 2 9-4 6-13 4h-12l-4-4-4-16-11-41-6-16-10-30-13-28-5-6-3-2-7-1 4 16 7 20 12 29 10 27 10 35 2 4 1 10-10 4-4 1h-12l-11-3-5-5-3-9-1-6-2-38-5-25-10-45-4-15-1-1h-5l-2 3v17l6 25 8 35 1 11v37l-1 13-2 2-11 2h-8l-14-6-1-4v-20l-5-32-3-35-1-42 4-17 4-11 5-8z" fill="#0D0D0D"/>
<path transform="translate(1289,652)" d="m0 0h8l-1 7-6 8 5-4 4-4 4-1 4 5v28l-1 10h-2l-3-9-7-7-3-6-1-9-2-4-5-3v-2l-5 1-4-1-9 1 3 9 8 13 8 12 8 10 11 12 5 10 1 13v25l-5 1-5-2-8-16-6-15-3-7-3-3h-4v2l-5 2-1 7-4 1v2l5 2 3 9 4 11 2 15 2 5 10-3 4-1v-2l10-2 4-1 1 33 1 18 1 6v10l-5-5-10-13-7-7v-2l-4-2-8-8-10-8-10-10-5-4v-2l4-1-6-11-7-11-1-4v-2l-5 1-9-3-9-6-7-1-13-8-10-4-10-8-12-12-5-6v-2l-5-2-2-3h-11l-1-3-7-2 1-4 2-1 18-1v2l-3 3 3 1v2h21l12 3 8 4 8 6 14 10 22 18 2 4 8-1 7 2-1-5 6-1-15-10-12-11-15-12-14-10-11-9-5-4 26-6 16-4 29-7z" fill="#0D0D0D"/>
<path transform="translate(1331,865)" d="m0 0 3 1v2l4 1 18 12 35 16 21 9 16 9 10 8-1 9-5 21-3 6-5 4-12 5-13 5-22 11-12 5-6 5-9 5h-4l1-22v-6l5-1 2 1v-2l-4-1-3-4-2-16-1-30-2-4 5 2 9 7 8 5 11 6 11 8 9 6 4 1h18v-2h-2l-7-8-17-11-16-8-27-14-8-6-1-9-1-4v-7l2-1 2 1-2-5-4-2-1 2-3-5z" fill="#0D0D0D"/>
<path transform="translate(821,675)" d="m0 0 5 2 13 12 13 17 6 10 9 20 10 19 12 24 5 12 7 15 11 21 8 13 12 23 10 15 10 19 8 16 5 11-1 2-4-2v-2l-5-2-14-10-14-12-5-3-9-17-16-26-5-8 1-3 12 19 8 13 6 10 3 6 2 1-5-13-10-16-13-22-12-23-6-10-16-28-9-17-5-12-8-16-7-12-8-20-3-10z" fill="#0D0D0D"/>
<path transform="translate(1458,604)" d="m0 0 4 1-1 20 1 14v11l-1 6v2l-1 6-5-2-13-2-9-5-22-6-2-1-4-9-2-2-10-2-10 4 1 4 2 4 3 1-3-5 1-3 5 4 10 7v2l9 1 26 8 6 4 12 7 3 6 1 6 1 17v11l-15-8-12-9-25-20-15-10-15-9-15-6-14-5-1-5h3-4l-5 5-6 1-1-4 7-3 30-10 19-5 33-11z" fill="#0D0D0D"/>
<path transform="translate(1334,738)" d="m0 0 11 7 13 8 18 10 21 13 11 9v2l6 1 19 10 12 6 12 4 1 1v14l-3 37-2 3-4-6-6-4-14-11-9-7-7-7-8-4-12-4-19-10-14-9-7-7-6-5-1-3-5-3v-3l3 3v-5l-4-2-1-1v-7l3-1-4-5-2-12v-7z" fill="#0D0D0D"/>
<path transform="translate(1332,796)" d="m0 0 7 6 7 7 10 8 9 9 7 8 5 4 8 13 14 24 3 6h3l-3-15-8-17-9-10-7-5-2-5 6 1 23 12 24 16 12 5 11 3-1 13-4 24-3 11-2 1-18-10-8-6-15-9-11-6-16-8-9-6-13-9-10-9-3-4-5-17-2-20z" fill="#0D0D0D"/>
<path transform="translate(670,632)" d="m0 0h1l2 42 2 34 1 22 7 8-1 2 4 5 10 9v2l4 2 7 8 14 14 8 6 5 5 4 1v2h2v-2l4 2 6 8 15 14 17 16 13 11 26 20 10 8 13 11 30 23 17 12 12 9 18 12 18 10 13 8 15 10 10 8 10 9 7 6 6 8 9 6 1 2-5-2-10-6-11-7-12-8-16-11-14-10-12-9-15-10-18-13-19-13-18-13-15-11-14-11-13-10-12-10-9-7-14-12-13-12-15-13-17-14-3-3v-3l-5-2-16-15-8-7-9-9-8-7-9-8v-2l-2 2v17l2 32 6 4v2l-6-1-2 49-2 11-2 36-1 9 3 1h-2l-1 7v13l5 7-1 2-5-3-5-9-2-3 1-7-2-5 1-4 1-2 3-45 1-26v-86h2v-4l-4-7-2-7-10-7-9-6 2-1 10 6 9 6-1-31-2-29v-19l4-2z" fill="#C1C1C1"/>
<path transform="translate(1338,1142)" d="m0 0h7l11 4 8 8 6 11 2 10v18l-6 12-7 10-7 3h-12l-9-3-8-9-3-6-1-9v-7l-3-5-6-7v-8l4-10 5-6 8-4z" fill="#0D0D0D"/>
<path transform="translate(1337,648)" d="m0 0 4 3 14 7 13 9 15 10 16 10 18 13 10 8 33 22 2 2 1 6-1 16-1 6-5-2-9-7-15-11-11-7-14-10-24-15-13-10-10-8-10-9-8-8-5-12-1-3v-7z" fill="#0D0D0D"/>
<path transform="translate(1036,743)" d="m0 0 4 2 2 9 8 13 2 5-4-1-3-4 2 7 8 11 8 14 10 15 10 14 13 18 11 12 8 12 10 16 10 23 7 16 10 17 8 9 6 2 12 12v2l4 2 5 5 5 6 8 7 7 4 6 2 5 5 7 6 11 5h8l6 2-3 3-7-1-5-1-9-1-6-5v-2l-4-2 1 4v4h-2v-2l-4-2-9-9-6-8-11-7-12-12-7-8-8-6-12-8-7-5-7-11-13-28-9-19-6-11-10-12-18-22-10-13-13-17-4-7-4-16-1-1h-6l-5-4-5-2-1-4h2l-1-5 2-3 8 2v-7l-4-16z" fill="#C1C1C1"/>
<path transform="translate(1335,685)" d="m0 0h2l9 12 9 8 24 15 51 34 14 7 6 2h10l1 1v10l-2 19-2 2-11-4-19-10-12-8-9-7-13-8-11-7-5-4-13-10-1-6-5-1-4-4-2-5-3-4-1-10-3 1-2-9-7-10z" fill="#0D0D0D"/>
<path transform="translate(1009,398)" d="m0 0 2 4 4 3 8 2 9-3 1-3 13 3 28 2 5 3 3 5v10l-3 5-7 8-6 3-8-2-14-7-8-5-4-1-2 7-3 4-9 1-5 1-19-5-9-6-6-6v-8l2-4 6-4 21-5z" fill="#0D0D0D"/>
<path transform="translate(730,658)" d="m0 0 5 2 4 10 7 21 1 2v-10l4 1 9 9 13 18 11 16 7 5 4 6-2-25 2 1 3 23 11 18 9 14 8 13 21 35 13 18 8 11 10 14-1 3-9-10-4-6-11-13-10-13-1-1 4 7 13 17 10 13 9 8 8 7 7 7 11 8-2 1-9-6-12-9-8-8-8-7-8-9-9-11-10-13-9-14-10-15-14-23-10-14-6-10-10-12-7-9-14-20-10-12-11-6-5-11-1-9h3l-4-10z" fill="#BDBDBD"/>
<path transform="translate(735,814)" d="m0 0h2l1 2 3 33-1 7 5 2 11 9 16 13 20 16 18 14 12 8 15 11 11 8 20 15 39 26 18 13 15 10 19 12 11 6 10 8 11 7 1 3-6-1-11-4-13-10-19-12-18-11-23-16-16-10-35-24-18-14-19-14-12-9-16-13-12-10-13-10-9-6-11-7-7-3v-48z" fill="#C1C1C1"/>
<path transform="translate(1429,1297)" d="m0 0 5 5 7 8 9 11 8 12 13 29 8 22v8l-3 8-4 3h-2l-8-15-5-9-12-32-8-20-6-21z" fill="#0D0D0D"/>
<path transform="translate(673,745)" d="m0 0 4 1 1 3v17l2 32 6 4v2l-6-1-2 49-2 11-2 36-1 9 3 1h-2l-1 7v13l5 7-1 2-5-3-5-9-2-3 1-7-2-5 1-4 1-2 3-45 1-26v-86h2z" fill="#C0C0C0"/>
<path transform="translate(1055,939)" d="m0 0 4 1 7 6 4 4 18 11 15 7 12 6 8 2 8 5 12 3 19 8 1 6 2-1v-2h2l1-4 7-10 3 1v7h2l-1 5-4 5-6 1-2 4-4 1-3-3-16-4-17-9-6-1-15-9-24-15-11-4-11-12-5-7z" fill="#C1C1C1"/>
<path transform="translate(735,871)" d="m0 0 3 1-1 27 2 9 6 8 11 9 24 16 22 14 12 9 3 3 6 3 4 3v6l-5-1-13-8-14-9-18-13-17-12-19-14-4-4-2-6h-2l-1-2v-14l2-21z" fill="#BFBFBF"/>
<path transform="translate(1378,413)" d="m0 0 6 1 19 8 11 5 25 11 20 10 7 3 17 8 16 6 19 9 10 4 21 7 6 4v2h-6l-16-5-21-8-14-7-27-12-15-8-16-7-25-11-36-18z" fill="#C2C2C2"/>
<path transform="translate(412,385)" d="m0 0h10l-2 2h-4v2l-14 6-12 2-20 3-11 2 1-2h2v-2l-6 3-11 7-8 5-9 3-3 2h-9l2-4 12-12 7-3 28-5 6-2z" fill="#0D0D0D"/>
<path transform="translate(701,652)" d="m0 0 5 3 2 3 2 16 2 32v7l-2 7v5l5 4-1 2-8-6-5-6-2-9v-52z" fill="#C2C2C2"/>
<path transform="translate(630,656)" d="m0 0 4 2 2 8 5 39 3 9 3 1-2 1-5-3h-2v22l2 31 2 6 22 9 1 4-9-2-18-7-4-1-1-19v-36h2v-8l-2-7-1-11-1-25z" fill="#C2C2C2"/>
<path transform="translate(734,696)" d="m0 0h5l1 2 3 39 1 9 13 12 8 7 2 4 4 2 11 9 17 17 7 10 5 7-1 2-8-10-7-8-6-7-8-7-9-8-13-10-10-8-2-4-3-3-2 5-2 1-5-12-1-2z" fill="#C2C2C2"/>
<path transform="translate(625,946)" d="m0 0 7 5 11 3 9 10 20 20 7 5 5 5 7 4-4 2-7-5-5 1-10-7-18-13-12-12-8-11-2-4z" fill="#0D0D0D"/>
<path transform="translate(519,403)" d="m0 0 4 2 16 15 16 12 17 13 13 10 11 8 17 11 14 7 9 5 5 6-3 1-14-7-24-14-16-11-17-13-14-11-13-11-10-8-10-12z" fill="#C2C2C2"/>
<path transform="translate(1234,669)" d="m0 0h6l5 5 5 3 8 6 6 12 5 4 2 3-1 5-5-1-16-8-8-10-4-11-2-2-18 2-1-3 8-4h9z" fill="#C2C2C2"/>
<path transform="translate(1292,1289)" d="m0 0h1v60l2 27 3 22-1 4-5-12-5-21-1-10v-34l3-28z" fill="#0D0D0D"/>
<path transform="translate(679,937)" d="m0 0 7 1 12 7 21 14 25 13 28 13 18 8 12 5 20 7 2-3 3 3 4 2 3 2v2l4 2-1 2-16-7-36-14-27-11-19-8-19-10-14-8-17-12-10-7z" fill="#C2C2C2"/>
<path transform="translate(910,584)" d="m0 0 7 1 11 6 14 9 10 5 11 8 10 7 10 8 4 3v2l-5-1-10-5-17-12-10-6-26-15-9-4-2-4z" fill="#C2C2C2"/>
<path transform="translate(1404,789)" d="m0 0h4l-1 8-4 11-1 10-4-2-4-3-12-4v-1l8-1 2-8 5-6h3l1-3z" fill="#C1C1C1"/>
<path transform="translate(1019,739)" d="m0 0h7l5 4 1 5-2 3h-5l-4 4h-13l-2-3 3-9 3-2z" fill="#C2C2C2"/>
<path transform="translate(967,532)" d="m0 0 7 6 8 7 6 3v2l4 2 11 10 5 5 8 6v3l-6-1-10-9-10-6-18-18-5-8z" fill="#C2C2C2"/>
<path transform="translate(635,784)" d="m0 0 2 1 1 100-2-1-1-18-1-41v-40z" fill="#C2C2C2"/>
<path transform="translate(613,630)" d="m0 0 9 3 14 6 5 4 2 5-5-1v6l-2 1-7-6-8-10-8-7z" fill="#C2C2C2"/>
<path transform="translate(1423,810)" d="m0 0 7 1 5 1-1 5-3 3-1 2h-7l-6-4-1-3 4-4z" fill="#bbb"/>
<path transform="translate(690,908)" d="m0 0 5 2 6 12 5 13-1 2-5-4-13-18-1-2 5 1 4 3 2 4v3-4l-4-7-4-4z" fill="#C2C2C2"/>
<path transform="translate(1361,1183)" d="m0 0 1 2 3-1-2 5-7 9-6-1-1-5 4-7z" fill="#C2C2C2"/>
<path transform="translate(1121,445)" d="m0 0 6 1 10 6 5 6 11 7v2l-6-2-20-13-6-5z" fill="#C2C2C2"/>
<path transform="translate(1252,999)" d="m0 0 15 3 1 4-4 3-7 1h-5z" fill="#C2C2C2"/>
<path transform="translate(780,727)" d="m0 0 6 4 14 19 4 8 12 17-1 2-9-12-7-9-5-9-8-11-6-7z" fill="#0D0D0D"/>
<path transform="translate(374,472)" d="m0 0 7 1 9 8-1 3-6-1v3l-4-1-2-2-3-9z" fill="#BEBEBE"/>
<path transform="translate(1013,386)" d="m0 0h11l3 3 6 8-2 1-12-6-10-1v-3z" fill="#0D0D0D"/>
<path transform="translate(782,685)" d="m0 0 7 6 6 7 4 9v2l-6-2-4-7-7-13z" fill="#C2C2C2"/>
<path transform="translate(603,532)" d="m0 0 7 1 35 13 17 6-4 1-19-6-23-9-13-5z" fill="#0D0D0D"/>
<path transform="translate(883 1e3)" d="m0 0 5 1 12 11 2 2-5-1-14-6-1-4z" fill="#C0C0C0"/>
<path transform="translate(476,509)" d="m0 0 10 4 2 2v5l-3 1-7-3-3-6z" fill="#C2C2C2"/>
<path transform="translate(1387,952)" d="m0 0h9l3 5 3 11-4-1-3-7-7-3z" fill="#C2C2C2"/>
<path transform="translate(746,370)" d="m0 0h6l9 5 1 4-1 2-5-1-10-8z" fill="#C2C2C2"/>
<path transform="translate(685,809)" d="m0 0 4 2 7 6 7 8 10 11h-3l-14-13-8-10z" fill="#C2C2C2"/>
<path transform="translate(866,793)" d="m0 0 4 4 14 26 4 7-1 2-9-14-7-14-5-9z" fill="#0D0D0D"/>
<path transform="translate(1455,536)" d="m0 0 3 1-14 7-9 2h-7l3-2 18-6z" fill="#0D0D0D"/>
<path transform="translate(1368,1186)" d="m0 0h2l-1 7-4 9-6 7-1-2 3-7 6-10z" fill="#C2C2C2"/>
<path transform="translate(678,908)" d="m0 0h10v2l5 2 4 5 2 7h-2l-2-4v-3l-4-2-7-3v-2l-6-1z" fill="#555"/>
<path transform="translate(1091,716)" d="m0 0h11l-1 6-3 1-10-4z" fill="#C2C2C2"/>
<path transform="translate(437,497)" d="m0 0 5 1 3 1 2 3v3l-6-1-3-2z" fill="#C2C2C2"/>
<path transform="translate(740,858)" d="m0 0 5 2 9 8-3 2-11-9z" fill="#0D0D0D"/>
<path transform="translate(1757,510)" d="m0 0 2 1v4l-4 2h-5v-4z" fill="#C2C2C2"/>
<path transform="translate(699,878)" d="m0 0 4 2 4 11v3h-2l-6-12z" fill="#C2C2C2"/>
<path transform="translate(1491,379)" d="m0 0h11l2 1 10 1v1l-12 1-11-3z" fill="#0D0D0D"/>
<path transform="translate(1212,958)" d="m0 0 2 2-1 14-1 8h-1v-18z" fill="#C2C2C2"/>
<path transform="translate(732,921)" d="m0 0 2 1v7l-1 5h-3v-8z" fill="#C2C2C2"/>
<path transform="translate(459,507)" d="m0 0 5 1 5 5v2l-5-2-7-3v-2z" fill="#C2C2C2"/>
<path transform="translate(1240,1009)" d="m0 0 9 1v3l-4 1-5-1-3-3z" fill="#C2C2C2"/>
<path transform="translate(393,481)" d="m0 0 4 1 4 4-1 3-8-4z" fill="#C2C2C2"/>
<path transform="translate(786,986)" d="m0 0 7 1 7 6v2l-4-2-10-6z" fill="#C2C2C2"/>
<path transform="translate(1116,799)" d="m0 0 4 2 1 5-4 2-1-1z" fill="#C2C2C2"/>
<path transform="translate(828,978)" d="m0 0 5 1 5 6-1 2-8-6z" fill="#C2C2C2"/>
<path transform="translate(1489,1357)" d="m0 0 3 3 3 5v7l-2-1-4-12z" fill="#0D0D0D"/>
<path transform="translate(647,716)" d="m0 0 6 2 11 8 1 2-4-2-14-9z" fill="#C2C2C2"/>
<path transform="translate(1244,738)" d="m0 0h3l1 4-2 2h-4v-4h2z" fill="#C2C2C2"/>
</svg>
